<?xml version="1.0" encoding="utf-8"?>
<!-- Generator: Adobe Illustrator 15.0.0, SVG Export Plug-In . SVG Version: 6.00 Build 0)  -->
<!DOCTYPE svg PUBLIC "-//W3C//DTD SVG 1.1//EN" "http://www.w3.org/Graphics/SVG/1.1/DTD/svg11.dtd">
<svg version="1.1" role="image" id="Layer_1" xmlns="http://www.w3.org/2000/svg" xmlns:xlink="http://www.w3.org/1999/xlink" x="0px" y="0px"
	 width="200px" height="178.952px" viewBox="0 0 396.386 351.952"
	 xml:space="preserve">
<path d="M183.923,57.829c0,0,2.331,4.057,2.528,7.675c0,0,21.571,8.218,26.541,16.662c0,0,2.668,18.184,9.68,27.82
	c0,0,8.194,7.598,3.085,19.406c0,0,5.872,15.716,4.783,25.049c0,0,5.123,20.588,3.595,27.897c0,0,10.213,6.352,14.34,43.566
	c0,0-2.615,11.259,20.371,11.742c0,0,10.52-3.234,42.943,29.556l19.074,3.001c0,0,6.172,7.205,3.844,15.326
	c0,0-2.882,1.676,0.719,11.349c0,0,0.477,18.218-9.187,22.392c0,0-4.813,4.119-6.319-18.548l-12.4-19.29
	c0,0-17.878-17.771-47.004-24.982c0,0-14.09-0.949-21.428-4.503l-36.191-42.474l-32.008,30.385c0,0-3.201,3.288,0.15,11.745
	c0,0,4.6,11.282,2.488,36.025l-0.496,24.712c0,0,3.883,18.168,0.729,24.697c0,0-6.429,3.717-17.404,0.229
	c0,0-8.134-2.328-15.822-1.418c0,0-13.8-2.656-15.072-6.283c0,0-4.54-6.842,9.243-6.201c0,0,7.318,1.932,14.55-2.625l9.573-11.066
	l-9.319-62.655c0,0-5.334-5.593-1.047-19.003l5.473-15.066c0,0,6.152-25.196,18.164-35.878c0,0,5.273-13.563,3.298-25.885
	c-0.453-2.818,3.595-4.587-0.529-10.609c0,0-10.767-18.084-8.808-23.377l-29.246-6.109c0,0-4.46-0.34-0.119-9.303
	c0,0,0.319-6.499,7.657-3.348c0,0,6.109,2.352,8.581,5.966l9.72-0.127l-0.376-29.159c0,0,2.367-11.845-8.244-10.423
	c0,0-6.746,2.642-4.884-9.53l-0.96-4.563c0,0,0.707-1.149-2.654-0.06c-3.084,0.989,1.016-6.705,2.552-7.634
	c0,0,0.213-13.441,6.219-20.329c0,0,6.006-5.343,10.449-6.222l4.454-3.161l4.34,0.359l0.926,2.675l4.477,1.562l0.027,2.025
	l4.527,5.609l4.516,4.807l3.682,1.259l1.865,3.488l-1.402,2.485l0.446,3.248l0.556,3.368l-1.642,4.044l-3.751,0.939l-0.27,3.861
	C187.504,52.922,186.581,57.146,183.923,57.829z"/>
</svg>
